<?xml version="1.0"?><svg width="1000" height="1000" xmlns="http://www.w3.org/2000/svg" xmlns:xlink="http://www.w3.org/1999/xlink">
 <defs>
  <linearGradient id="linearGradient6534">
   <stop stop-color="#16009e" id="stop6536" offset="0"/>
   <stop stop-color="#7ccbff" offset="0.5" id="stop6544"/>
   <stop stop-color="#ffffff" id="stop6546" offset="1"/>
  </linearGradient>
  <linearGradient id="linearGradient4646">
   <stop stop-color="#ffffff" stop-opacity="0.649485" id="stop4648" offset="0"/>
   <stop stop-color="#ffffff" stop-opacity="0" id="stop4650" offset="1"/>
  </linearGradient>
  <linearGradient id="linearGradient20137">
   <stop stop-color="#000593" offset="0" id="stop20139"/>
   <stop stop-color="#00023a" offset="1" id="stop20141"/>
  </linearGradient>
  <radialGradient r="22.420883" fy="1548.0869" fx="-32.944878" cy="1548.0869" cx="-32.944878" gradientTransform="matrix(-41.5925, 48.5325, -55.3257, -49.3165, 84597.3, 78216.5)" gradientUnits="userSpaceOnUse" id="radialGradient1773" xlink:href="#linearGradient6534"/>
  <linearGradient y2="-0.058557" x2="0.280116" y1="1.574952" x1="0.280695" id="linearGradient1775" xlink:href="#linearGradient20137"/>
  <linearGradient y2="-0.058557" x2="0.280116" y1="-1.312799" x1="0.605326" id="linearGradient1777" xlink:href="#linearGradient20137"/>
  <linearGradient y2="-0.389919" x2="0.499955" y1="1.6508" x1="0.499955" id="linearGradient1779" xlink:href="#linearGradient20137"/>
  <linearGradient y2="1.384661" x2="0.842057" y1="-0.524098" x1="0.695652" id="linearGradient1781" xlink:href="#linearGradient20137"/>
  <linearGradient y2="0.238448" x2="0.500028" y1="0.703495" x1="0.500028" id="linearGradient1783" xlink:href="#linearGradient20137"/>
  <linearGradient y2="0.889521" x2="0.500028" y1="-0.12785" x1="0.500028" id="linearGradient1785" xlink:href="#linearGradient20137"/>
  <linearGradient y2="1.419637" x2="1.061875" y1="-0.112626" x1="1.397037" id="linearGradient1787" xlink:href="#linearGradient20137"/>
  <linearGradient y2="-0.112626" x2="1.397037" y1="2.688693" x1="0.500005" id="linearGradient1789" xlink:href="#linearGradient20137"/>
  <linearGradient y2="0.680996" x2="-0.157511" y1="-0.154377" x1="0.697188" id="linearGradient1791" xlink:href="#linearGradient20137"/>
  <linearGradient y2="-0.044459" x2="0.814284" y1="0.954388" x1="0.175488" id="linearGradient1793" xlink:href="#linearGradient20137"/>
  <linearGradient y2="1.010062" x2="-0.167718" y1="-0.010692" x1="0.681969" id="linearGradient1795" xlink:href="#linearGradient20137"/>
  <linearGradient y2="0.499691" x2="0.503992" y1="1.191252" x1="-0.146033" id="linearGradient1797" xlink:href="#linearGradient20137"/>
  <linearGradient y2="0.44632" x2="-0.228504" y1="0.499905" x1="1.007892" id="linearGradient1799" xlink:href="#linearGradient20137"/>
  <linearGradient y2="0.44632" x2="-0.228504" y1="0.499905" x1="1.007892" id="linearGradient1801" xlink:href="#linearGradient20137"/>
  <linearGradient y2="-0.023093" x2="0.733252" y1="1.435701" x1="0.795192" id="linearGradient1803" xlink:href="#linearGradient20137"/>
  <linearGradient y2="0.831354" x2="0.707475" y1="0.074549" x1="0.640531" id="linearGradient1805" xlink:href="#linearGradient20137"/>
  <linearGradient y2="0.403321" x2="0.60128" y1="0.811231" x1="0.579461" id="linearGradient1807" xlink:href="#linearGradient20137"/>
  <linearGradient y2="1.042124" x2="0.635758" y1="-0.116188" x1="0.617441" id="linearGradient1809" xlink:href="#linearGradient20137"/>
  <linearGradient y2="0.637117" x2="0.875841" y1="0.692986" x1="0.967614" id="linearGradient1813" xlink:href="#linearGradient4646"/>
 </defs>
 <metadata id="metadata7">image/svg+xml</metadata>
 <g>
  <title>Layer 1</title>
  <path fill="url(#radialGradient1773)" stroke="#000000" stroke-width="0.529358" stroke-linecap="round" stroke-linejoin="round" stroke-miterlimit="4" id="path6532" d="m990.604126,500.84198a490.085571,491.338226 0 1 1 -980.171373,0a490.085571,491.338226 0 1 1 980.171373,0z"/>
  <path fill="url(#linearGradient1775)" fill-rule="evenodd" stroke="url(#linearGradient1777)" stroke-width="2.181966" stroke-linejoin="round" stroke-miterlimit="4" id="path6596" d="m312.448029,423.810211c-0.911163,-11.220215 16.242676,-11.773743 39.250305,-8.871124c-7.089844,3.89624 -4.920288,9.972015 4.451141,17.742218c-14.567047,0.37793 -29.134247,3.091614 -43.701447,-8.871094z"/>
  <path fill="url(#linearGradient1779)" fill-rule="evenodd" stroke="url(#linearGradient1781)" stroke-width="2.181966" stroke-linejoin="round" stroke-miterlimit="4" id="path6598" d="m364.224854,423.810211c2.767334,-1.287201 18.176941,-2.502533 22.26709,0c-8.309204,5.273895 -14.154388,11.176697 -17.396851,17.742249c-4.746002,-4.144592 -11.075684,-7.392334 -4.870239,-17.742249z"/>
  <path fill="url(#linearGradient1783)" fill-rule="evenodd" stroke="url(#linearGradient1785)" stroke-width="2.181966" stroke-linejoin="round" stroke-miterlimit="4" id="path6600" d="m403.888702,441.55246c11.579285,11.107513 6.60376,28.354736 4.987549,44.35556c6.03595,-7.791443 18.4487,-1.646454 16.625671,-26.613342c-7.953491,-19.663727 -14.916534,-21.148743 -21.61322,-17.742218z"/>
  <path fill="url(#linearGradient1787)" fill-rule="evenodd" stroke="url(#linearGradient1789)" stroke-width="3.272949" stroke-linecap="round" stroke-linejoin="round" stroke-miterlimit="4" id="path6664" d="m625.733032,59.160267c4.972351,6.546009 3.132751,9.933002 0.054626,13.321728c-14.759216,-5.914375 -26.854004,-7.407364 -22.379517,-13.321728c9.084839,-2.514095 16.542664,-2.538921 22.32489,0z"/>
  <path fill="url(#linearGradient1791)" fill-rule="evenodd" stroke="url(#linearGradient1793)" stroke-width="3.272949" stroke-linecap="round" stroke-linejoin="round" stroke-miterlimit="4" id="path6662" d="m725.185608,103.515846c-15.195251,-3.332863 -30.835999,-7.442894 -34.79364,8.871101c10.172668,2.105141 19.217468,9.386559 26.095215,26.613358c2.899414,-2.956726 10.752991,2.295837 8.698425,-8.871094c-4.252075,-5.914368 -8.503967,-11.827896 -12.75592,-17.742264c9.761169,5.029068 18.866394,1.364372 30.15271,26.613358c1.302185,-2.956726 2.604431,-5.914383 3.906616,-8.871094c-5.243347,-15.818115 -10.486572,-19.637123 -21.303406,-26.613365z"/>
  <path fill="url(#linearGradient1795)" fill-rule="evenodd" stroke="url(#linearGradient1797)" stroke-width="3.272949" stroke-linecap="round" stroke-linejoin="round" stroke-miterlimit="4" id="path6660" d="m881.756592,201.098129c-35.646912,-51.723038 -96.971497,-100.464523 -130.475769,-124.195641c27.612061,24.478958 23.795898,36.629738 8.698303,44.355591c-2.467712,9.430016 -3.26532,19.428658 13.757446,35.484459c19.335632,16.938522 16.962097,24.818741 0,26.613358c-23.271301,-5.346588 -26.809937,1.198486 -13.757446,17.742233c12.42981,9.301361 19.905579,23.656631 29.858215,35.484482c10.495178,-3.42691 35.615417,11.789719 22.332031,-21.950699c-6.449951,-16.671509 -6.759277,-30.211502 0,-40.14711c5.995789,-2.124664 8.276184,-9.301376 8.698425,-17.742264c14.722961,17.943619 40.592529,29.570114 60.888794,44.355591z"/>
  <path fill="url(#linearGradient1799)" fill-rule="evenodd" stroke="url(#linearGradient1801)" stroke-width="3.272949" stroke-linecap="round" stroke-linejoin="round" stroke-miterlimit="4" id="path6636" d="m905.205383,272.130035c-46.563904,-53.716385 -76.306152,-44.737885 -107.170898,-3.389648c-1.219604,10.754486 1.064575,21.113281 8.698425,30.86441c-20.247498,12.510101 -10.888611,39.461426 -21.342041,48.975677c0.874207,11.689484 2.03302,23.559906 -4.753113,30.365845c9.905884,1.337769 15.365784,9.476135 17.396729,22.86084c0,19.441986 0,38.883881 0,58.325867c28.821045,39.191711 58.933594,86.550201 78.285706,65.869843c8.992615,-12.256348 19.387451,-10.657776 32.208557,-9.248169c-8.286987,-14.370331 9.06189,-15.383392 26.83374,-18.926575c13.736694,9.797333 24.682983,27.599854 19.243103,81.401367c5.684631,68.012268 -24.910522,136.02356 -57.042419,204.035767c71.749939,-115.657227 152.550476,-299.433075 15.60199,-534.903595c-2.899414,5.914383 -5.060364,17.854004 -7.959778,23.768372z"/>
  <path fill="url(#linearGradient1803)" fill-rule="evenodd" stroke="url(#linearGradient1805)" stroke-width="2.181966" stroke-linecap="round" stroke-linejoin="round" stroke-miterlimit="4" id="path6594" d="m256.016022,370.583496c21.696686,7.152802 37.107635,19.291168 47.406799,35.484497l-8.81308,14.684357c-17.877655,-21.775024 -36.864471,-31.105682 -55.990479,-38.875916l17.396759,-11.292938z"/>
  <path fill="url(#linearGradient1807)" fill-rule="evenodd" stroke="url(#linearGradient1809)" stroke-width="3.272949" stroke-linecap="round" stroke-linejoin="round" stroke-miterlimit="4" id="path6562" d="m402.529419,935.436829c14.448364,-23.24762 25.148438,-50.023315 60.888672,-53.226685c33.813141,0.957153 50.552917,-32.910095 69.587158,-62.097839c32.128784,-9.622498 62.978638,-21.594055 78.285522,-62.097839c-13.622803,-18.719788 0.509888,-39.901367 26.095215,-62.097839c33.514099,-29.240051 20.791809,-45.735046 -8.698425,-57.609009c-18.284485,-4.559753 -51.871765,-13.021851 -104.380676,-26.308167c-27.002747,-1.981812 -23.19577,-32.766357 -34.79361,-49.149536c-4.951599,-16.1073 -34.073456,-22.627563 -69.587128,-26.613342c-24.980255,-40.936646 -51.634949,-42.598267 -78.285553,-44.355621c-23.68396,-17.213531 -49.470428,-19.417084 -78.285553,0c-1.730865,9.819427 -7.954971,16.365448 -22.52327,0c-23.921097,14.970001 -31.965424,3.784454 -33.733215,-17.742218c13.214157,-51.238678 -8.882065,-47.601563 -30.727402,-44.355591c11.876602,-11.543976 15.708252,-31.292908 17.396759,-53.226715c-84.48571,67.245728 -54.432495,-13.951599 -52.190323,-62.097809c27.719925,1.493011 64.617188,-53.22052 104.380692,8.871124c-5.773254,10.541504 -4.830933,19.561676 4.794968,26.613342c2.994156,-47.153564 13.312729,-72.831879 29.998672,-79.840088c19.517548,-1.194031 34.707062,-16.733566 47.389252,-40.584442c6.654327,-10.508743 22.869049,-16.141006 39.594604,-21.513367c-2.120453,-14.401382 5.967316,-20.7939 26.095184,-17.742218c15.064697,6.880432 30.100647,13.261414 43.491943,-8.87114c-16.323578,-3.551086 -28.726624,-10.434219 -34.793488,-22.702972c-12.470825,-22.892776 6.825928,-13.38829 26.095184,-3.9104c10.116638,-8.243912 21.266083,-12.80188 34.793488,-8.871078c-14.460144,11.594543 -20.914795,21.933838 8.698456,26.613358c20.807007,5.996872 9.466583,-17.941864 -8.698456,-48.234955c-17.2659,-20.989075 -33.022522,-34.668327 -43.491943,-22.734001c-11.266541,-19.220161 -22.23172,-40.234066 -43.491913,0c-27.030396,30.775688 -45.447296,42.434105 -43.491943,8.871094c-14.029694,-7.67881 -26.236237,-15.512016 0,-26.613312c9.586121,-9.078735 18.897064,-18.50074 43.491943,-8.87114c18.409637,-12.538441 34.836823,-7.839401 51.548401,5.597694c23.297424,-7.339966 44.464081,-12.822327 44.133911,-32.21106c-13.300354,-16.882597 -34.302521,-7.583923 -52.190399,-8.871086c19.424774,-5.264149 34.049652,-13.466391 69.587128,-8.871134c13.959595,0.548216 18.673309,10.52648 8.698456,35.484453c20.710144,39.397537 36.143066,29.398903 55.111877,-2.618752c10.323059,-4.204014 26.423157,-5.789276 36.746399,-9.993282c-20.786194,-18.974472 -53.639404,-41.129009 -62.561401,-46.275141c-119.33078,0.062972 -253.185181,38.096533 -325.042267,112.11389c-34.693573,44.087692 -82.716675,82.111053 -94.686432,149.499634c-9.884933,57.829071 -26.040901,161.662842 -0.995872,107.762787c-1.997673,20.239471 4.185287,36.306854 26.095161,44.35556c12.449417,17.225983 25.949661,30.163635 43.491959,26.613373c10.152863,26.737549 15.592865,55.878265 48.586044,70.968964c20.341202,-11.519165 26.326569,5.266724 21.001083,44.355591c-11.677856,10.227539 -21.240677,23.689453 -26.095184,44.355591c-14.631882,25.39801 16.893494,62.092529 43.491943,97.582275c19.145996,35.851746 72.168854,59.701721 69.58725,106.45343c-1.165009,43.637085 1.79306,85.522888 20.994934,120.50531c26.246887,37.833496 46.183289,52.682861 48.592194,3.690308z"/>
  <path fill="url(#linearGradient1813)" stroke="#000000" stroke-width="0.529358" stroke-linecap="round" stroke-linejoin="round" stroke-miterlimit="4" d="m989.406494,499.84198a490.085571,491.338226 0 1 1 -980.171265,0a490.085571,491.338226 0 1 1 980.171265,0z" id="path6630"/>
  <g id="g7757">
   <g id="g2617">
    <g id="g2049">
     <g id="g3524"/>
     <g id="g2875">
      <g id="g2878"/>
      <g id="g2360">
       <g id="g2396">
        <g id="g2398">
         <g id="g2400"/>
         <g id="g1783">
          <g id="g1791">
           <g id="g1793"/>
          </g>
         </g>
        </g>
       </g>
      </g>
     </g>
     <g id="g3393">
      <g id="g2570">
       <g id="g3417">
        <g id="g3423"/>
       </g>
      </g>
      <g id="g3842">
       <g id="g3852">
        <g id="g3854">
         <g id="g3859"/>
        </g>
       </g>
      </g>
     </g>
    </g>
   </g>
  </g>
 </g>
</svg>