<svg xmlns="http://www.w3.org/2000/svg" viewBox="5778.156 -3441.478 33.281 38.313">
  <defs>
    <style>
      .cls-1 {
        fill: #10af46;
        stroke: #10af46;
      }
    </style>
  </defs>
  <g id="Group_1177" data-name="Group 1177" transform="translate(4949 -3794)">
    <path id="Path_738" data-name="Path 738" class="cls-1" d="M663.491,48.135a68.73,68.73,0,0,1-14.945-1.594,1.033,1.033,0,0,1-.747-.747,14.222,14.222,0,0,1-.3-2.889,14.567,14.567,0,0,1,9.067-13.1,8.866,8.866,0,0,1-2.042-5.729,7.072,7.072,0,0,1,.2-1.793,1.016,1.016,0,0,1,1.993.4,6.753,6.753,0,0,0-.15,1.445,7.062,7.062,0,0,0,2.491,5.38,1.136,1.136,0,0,1,.349.947.911.911,0,0,1-.647.747c-5.48,1.793-9.117,6.526-9.117,11.757a11.5,11.5,0,0,0,.149,1.843,65.279,65.279,0,0,0,13.849,1.395A64.946,64.946,0,0,0,677.49,44.8a11.479,11.479,0,0,0,.149-1.843c0-5.231-3.686-9.963-9.117-11.757a.911.911,0,0,1-.648-.747,1,1,0,0,1,.349-.947,6.986,6.986,0,0,0,2.491-5.38,6.285,6.285,0,0,0-.15-1.395,1.016,1.016,0,0,1,1.993-.4,10.981,10.981,0,0,1,.2,1.793,9.149,9.149,0,0,1-2.042,5.729,14.514,14.514,0,0,1,9.067,13.1,14.235,14.235,0,0,1-.3,2.889,1.033,1.033,0,0,1-.747.747A77.182,77.182,0,0,1,663.491,48.135Z" transform="translate(182.156 342.2)"/>
    <path id="Path_739" data-name="Path 739" class="cls-1" d="M678.512,22.793H655.6a1,1,0,1,1,0-1.993h22.916a1,1,0,0,1,0,1.993Z" transform="translate(178.593 342.535)"/>
    <path id="Path_740" data-name="Path 740" class="cls-1" d="M661.446,12.305a1.062,1.062,0,0,1-1-.8,10.881,10.881,0,0,1-.149-1.793,9.615,9.615,0,1,1,19.229,0,10.887,10.887,0,0,1-.149,1.793.987.987,0,1,1-1.943-.349,6.654,6.654,0,0,0,.149-1.395,7.622,7.622,0,1,0-15.244,0,7.124,7.124,0,0,0,.149,1.445.972.972,0,0,1-.8,1.146A.666.666,0,0,0,661.446,12.305Z" transform="translate(175.732 352.922)"/>
    <path id="Path_741" data-name="Path 741" class="cls-1" d="M675.253,50.558h-8.519a4.231,4.231,0,0,1-4.234-4.234V40.146a1,1,0,1,1,1.993,0v6.177a2.232,2.232,0,0,0,2.242,2.242h8.519a2.233,2.233,0,0,0,2.242-2.242V40a1,1,0,0,1,1.993,0v6.327A4.231,4.231,0,0,1,675.253,50.558Z" transform="translate(174.628 333.401)"/>
  </g>
</svg>
