<svg xmlns="http://www.w3.org/2000/svg" viewBox="-426.288 -9528.635 30.82 27.053">
  <defs>
    <style>
      .cls-1 {
        fill: #525552;
      }
    </style>
  </defs>
  <g id="Group_712" data-name="Group 712" transform="translate(-426.288 -9528.635)">
    <g id="Group_411" data-name="Group 411" transform="translate(0 0)">
      <path id="Path_493" data-name="Path 493" class="cls-1" d="M505.535,324.512H494.129a6.982,6.982,0,0,1-6.636-6.3v-.042a18.122,18.122,0,0,1,.083-2.53c.041-.747.124-1.825.083-2.364l-3.194-.083a.867.867,0,0,1-.747-.5l-1.037-2.24a.772.772,0,0,1,.207-.954c3.857-3.443,6.18-5.226,6.968-5.309a3.172,3.172,0,0,1,2.2,1,2.7,2.7,0,0,1,1.12-.622,2.874,2.874,0,0,1,.83-.124,2.309,2.309,0,0,1,2.281,1.576,2.2,2.2,0,0,1-.622,2.2c.415.332.913.705,1.41,1.078h9.581c2.945,0,4.77,2.24,4.77,5.807v3.567A5.9,5.9,0,0,1,505.535,324.512Zm-16.425-6.471a5.336,5.336,0,0,0,5.019,4.853h11.406a4.16,4.16,0,0,0,4.148-4.148V315.18c0-1.576-.415-4.148-3.111-4.148H496.7a.724.724,0,0,1-.5-.166c-2.986-2.281-2.986-2.281-2.862-2.82a.929.929,0,0,1,.581-.664c.5-.166.788-.581.705-.83-.083-.29-.581-.456-1.037-.332a1.117,1.117,0,0,0-.705.581.758.758,0,0,1-.622.539.917.917,0,0,1-.788-.249,3.964,3.964,0,0,0-1.535-1.161,49.7,49.7,0,0,0-5.6,4.48l.539,1.2,3.235.083a.7.7,0,0,1,.415.124c.788.5.747,1.659.581,3.982C489.151,316.59,489.068,317.461,489.11,318.042Z" transform="translate(-482.596 -304.18)"/>
    </g>
    <g id="Group_412" data-name="Group 412" transform="translate(9.168 18.798)">
      <path id="Path_494" data-name="Path 494" class="cls-1" d="M505.53,357.754a.832.832,0,0,1-.83-.83v-6.6a.83.83,0,1,1,1.659,0v6.6A.832.832,0,0,1,505.53,357.754Z" transform="translate(-504.7 -349.5)"/>
    </g>
    <g id="Group_413" data-name="Group 413" transform="translate(24.515 17.803)">
      <path id="Path_495" data-name="Path 495" class="cls-1" d="M542.53,356.35a.832.832,0,0,1-.83-.83v-7.59a.83.83,0,1,1,1.659,0v7.59A.832.832,0,0,1,542.53,356.35Z" transform="translate(-541.7 -347.1)"/>
    </g>
    <g id="Group_414" data-name="Group 414" transform="translate(29.161 12.784)">
      <path id="Path_496" data-name="Path 496" class="cls-1" d="M553.73,342.466a.832.832,0,0,1-.83-.83V335.83a.83.83,0,1,1,1.659,0v5.807A.832.832,0,0,1,553.73,342.466Z" transform="translate(-552.9 -335)"/>
    </g>
  </g>
</svg>
