<svg xmlns="http://www.w3.org/2000/svg" viewBox="685 -9689.105 24.986 23.17">
  <defs>
    <style>
      .cls-1 {
        fill: #555;
      }
    </style>
  </defs>
  <g id="Group_832" data-name="Group 832" transform="translate(685.043 -10157.655)">
    <g id="Group_392" data-name="Group 392" transform="translate(4.634 468.55)">
      <path id="Path_478" data-name="Path 478" class="cls-1" d="M17.759,479.925a.624.624,0,0,1-.622-.622v-4.326H15.612a.6.6,0,0,1-.591-.436.577.577,0,0,1,.218-.685l6.723-5.166a.568.568,0,0,1,.747,0l6.754,5.166a.591.591,0,0,1,.218.685.636.636,0,0,1-.591.436H27.563V477.5a.622.622,0,0,1-1.245,0v-3.143a.624.624,0,0,1,.622-.622h.311l-4.917-3.766-4.917,3.766h.311a.624.624,0,0,1,.622.622V479.3A.58.58,0,0,1,17.759,479.925Z" transform="translate(-14.984 -468.55)"/>
    </g>
    <g id="Group_393" data-name="Group 393" transform="translate(-0.043 477.654)">
      <path id="Path_479" data-name="Path 479" class="cls-1" d="M3.114,508.071a.6.6,0,0,1-.373-.124.605.605,0,0,1-.124-.871c4.139-5.7,10.551-7.5,15.312-7.968A26.73,26.73,0,0,0,.935,503.839a.638.638,0,0,1-.871-.156.638.638,0,0,1,.156-.871c12.543-8.4,24.027-3.7,24.12-3.673a.67.67,0,0,1,.373.747.64.64,0,0,1-.685.467c-.124-.031-13.725-1.712-20.417,7.469A.65.65,0,0,1,3.114,508.071Z" transform="translate(0.043 -497.801)"/>
    </g>
    <g id="Group_394" data-name="Group 394" transform="translate(7.497 479.229)">
      <path id="Path_480" data-name="Path 480" class="cls-1" d="M24.812,515.354a.91.91,0,0,1-.28-.062.624.624,0,0,1-.28-.84c4.357-8.746,16.122-11.453,16.62-11.578a.623.623,0,0,1,.28,1.214c-.124.031-11.671,2.708-15.779,10.924A.656.656,0,0,1,24.812,515.354Z" transform="translate(-24.185 -502.862)"/>
    </g>
  </g>
</svg>
