<svg xmlns="http://www.w3.org/2000/svg" viewBox="-1381.964 -743.076 13.368 23.688">
  <defs>
    <style>
      .cls-1 {
        fill: #fff;
        stroke: #fff;
        stroke-miterlimit: 10;
        stroke-width: 2px;
      }
    </style>
  </defs>
  <path id="Path_748" data-name="Path 748" class="cls-1" d="M643.639,1022.444c-3.422-.441-4.084-1.435-4.084-3.09,0-1.876.5-3.587,4.084-3.587a9.122,9.122,0,0,1,4.636,1.1l.276.166v-1.269l-.055-.055a8.53,8.53,0,0,0-4.194-1.269,16.671,16.671,0,0,1,.11-1.821v-.221h-1.38v.166a17.044,17.044,0,0,0-.11,1.876c-4.139.221-5.022,2.759-5.022,4.912,0,2.87,1.656,4.194,5.629,4.691,3.477.442,4.084,1.214,4.084,2.815,0,1.711-.331,3.587-4.084,3.587a10.575,10.575,0,0,1-5.132-1.214l-.276-.166v1.435l.055.055a9.549,9.549,0,0,0,4.691,1.269c0,1.049-.11,2.042-.11,2.042v.221h1.38v-.166c0-.055.11-1.325.11-2.1,3.311-.221,5.022-1.876,5.022-4.912C649.268,1024.155,647.723,1022.941,643.639,1022.444Z" transform="translate(-2018.864 -1754.476)"/>
</svg>
