<svg xmlns="http://www.w3.org/2000/svg" viewBox="-493.045 -9534.054 21.435 36.301">
  <defs>
    <style>
      .cls-1 {
        fill: #525552;
      }
    </style>
  </defs>
  <g id="Group_711" data-name="Group 711" transform="translate(-493.045 -9534.054)">
    <g id="Group_360" data-name="Group 360" transform="translate(0 10.947)">
      <g id="Group_356" data-name="Group 356" transform="translate(0 10.295)">
        <path id="Path_452" data-name="Path 452" class="cls-1" d="M823.323,54.683a4.64,4.64,0,0,1-3.284-1.373c-1.569-1.569-2.353-6.863-2.451-7.892a.94.94,0,0,1,.294-.833.98.98,0,0,1,.833-.294c1.03.147,6.324.882,7.893,2.451a4.557,4.557,0,0,1,1.373,3.284,4.687,4.687,0,0,1-4.657,4.657ZM819.744,46.5c.392,2.206,1.029,4.8,1.716,5.49a2.679,2.679,0,0,0,1.863.784,2.592,2.592,0,0,0,1.863-.784,2.6,2.6,0,0,0,0-3.726C824.548,47.526,821.95,46.839,819.744,46.5Z" transform="translate(-817.575 -44.281)"/>
      </g>
      <g id="Group_357" data-name="Group 357">
        <path id="Path_453" data-name="Path 453" class="cls-1" d="M823.323,33.683a4.64,4.64,0,0,1-3.284-1.373c-1.569-1.569-2.353-6.863-2.451-7.892a.94.94,0,0,1,.294-.833,1.036,1.036,0,0,1,.833-.294c1.03.147,6.324.882,7.893,2.451a4.557,4.557,0,0,1,1.373,3.284,4.64,4.64,0,0,1-1.373,3.284A4.445,4.445,0,0,1,823.323,33.683ZM819.744,25.5c.392,2.206,1.029,4.8,1.716,5.49a2.634,2.634,0,1,0,3.726-3.726C824.548,26.526,821.95,25.888,819.744,25.5Z" transform="translate(-817.575 -23.281)"/>
      </g>
      <g id="Group_358" data-name="Group 358" transform="translate(11.054 10.341)">
        <path id="Path_454" data-name="Path 454" class="cls-1" d="M844.77,54.731a4.64,4.64,0,0,1-3.284-1.373,4.586,4.586,0,0,1,0-6.52c1.569-1.569,6.863-2.3,7.892-2.451a.94.94,0,0,1,.833.294,1.237,1.237,0,0,1,.294.833c-.147,1.029-.882,6.324-2.451,7.892A4.9,4.9,0,0,1,844.77,54.731Zm3.579-8.187c-2.206.392-4.8,1.029-5.49,1.716a2.652,2.652,0,1,0,3.726,3.775C847.319,51.3,847.956,48.7,848.348,46.544Z" transform="translate(-840.125 -44.375)"/>
      </g>
      <g id="Group_359" data-name="Group 359" transform="translate(11.054 0.046)">
        <path id="Path_455" data-name="Path 455" class="cls-1" d="M844.77,33.731a4.64,4.64,0,0,1-3.284-1.373,4.586,4.586,0,0,1,0-6.52c1.569-1.569,6.863-2.353,7.892-2.451a.94.94,0,0,1,.833.294,1.237,1.237,0,0,1,.294.833c-.147,1.029-.882,6.324-2.451,7.892A4.676,4.676,0,0,1,844.77,33.731Zm3.579-8.187c-2.206.392-4.8,1.029-5.49,1.716a2.652,2.652,0,1,0,3.726,3.775C847.319,30.348,847.956,27.75,848.348,25.544Z" transform="translate(-840.125 -23.375)"/>
      </g>
    </g>
    <g id="Group_361" data-name="Group 361" transform="translate(6.042 0)">
      <path id="Path_456" data-name="Path 456" class="cls-1" d="M834.557,13.279a4.64,4.64,0,0,1-3.284-1.373A4.556,4.556,0,0,1,829.9,8.622c0-2.255,3.187-6.471,3.824-7.3a1.021,1.021,0,0,1,1.569,0c.637.833,3.824,5.1,3.824,7.3A4.512,4.512,0,0,1,834.557,13.279Zm0-9.657c-1.275,1.814-2.647,4.118-2.647,5.1a2.679,2.679,0,0,0,2.647,2.647A2.636,2.636,0,0,0,837.2,8.72C837.253,7.739,835.881,5.435,834.557,3.622Z" transform="translate(-829.9 -0.95)"/>
    </g>
    <g id="Group_362" data-name="Group 362" transform="translate(9.719 30.32)">
      <path id="Path_457" data-name="Path 457" class="cls-1" d="M838.38,68.781a.983.983,0,0,1-.981-.98V63.78a.98.98,0,0,1,1.961,0V67.8A.983.983,0,0,1,838.38,68.781Z" transform="translate(-837.4 -62.8)"/>
    </g>
  </g>
</svg>
