<svg xmlns="http://www.w3.org/2000/svg" viewBox="2758.198 -7935.744 21.522 25.847">
  <defs>
    <style>
      .cls-1 {
        fill: none;
        stroke: #fff;
        stroke-linecap: round;
        stroke-linejoin: round;
        stroke-miterlimit: 10;
        stroke-width: 2.5px;
      }
    </style>
  </defs>
  <path id="Path_695" data-name="Path 695" class="cls-1" d="M918.322,384.7c-.9-.966-2.8-1.2-4.33-1.3l.067-1.8a7.347,7.347,0,0,0,.766-.833,7.936,7.936,0,0,0,.733-2.931,1.322,1.322,0,0,0,.633-1.066c.1-.666-.1-1.266-.5-1.366.033-.033.033-.067.067-.1.7-1.332-.167-3.3-1.965-4.4a12.6,12.6,0,0,0-1.133-.6,6.369,6.369,0,0,0-3.264-.8,11.207,11.207,0,0,0-2.532,2.065,3.191,3.191,0,0,0-.866,3.764c-.1,0-.2.033-.266.033-.4.067-.633.666-.5,1.366.1.633.466,1.1.833,1.1a4.9,4.9,0,0,0,.266,1,5.014,5.014,0,0,0,.766,2c.167.2.366.433.566.633l.1,1.865c-1.466.2-3.731.466-4.663,1.532a7.1,7.1,0,0,0-1.8,4.664c0,4.364,19.021,4.364,19.021,0A6.923,6.923,0,0,0,918.322,384.7Z" transform="translate(1858.147 -8303.955)"/>
</svg>
