<svg xmlns="http://www.w3.org/2000/svg" viewBox="-1401 -570 16 16">
  <defs>
    <style>
      .cls-1 {
        fill: #46d377;
      }
    </style>
  </defs>
  <g id="Group_1056" data-name="Group 1056" transform="translate(-3128 -893)">
    <path id="Path_747" data-name="Path 747" class="cls-1" d="M4.7,6.5,3.6,7.6l3.6,3.6,8-8L14.1,2.1,7.2,9ZM14.4,8A6.445,6.445,0,0,1,8,14.4,6.445,6.445,0,0,1,1.6,8,6.445,6.445,0,0,1,8,1.6a11.019,11.019,0,0,1,1.8.2L11,.6A7.653,7.653,0,0,0,8,0a8,8,0,1,0,8,8Zm0,0" transform="translate(1727 323)"/>
  </g>
</svg>
