<svg xmlns="http://www.w3.org/2000/svg" viewBox="-1498.937 -3646.477 22.196 25.5">
  <defs>
    <style>
      .cls-1 {
        fill: #d3d4d5;
        stroke: #d3d4d5;
      }
    </style>
  </defs>
  <g id="Group_1181" data-name="Group 1181" transform="translate(-2801.865 -3800)">
    <path id="Path_449" data-name="Path 449" class="cls-1" d="M670.3,22.108H655.254a.654.654,0,0,1,0-1.308H670.3a.654.654,0,0,1,0,1.308Z" transform="translate(651.15 139.994)"/>
    <g id="Group_1180" data-name="Group 1180">
      <path id="Path_448" data-name="Path 448" class="cls-1" d="M658,38.977a45.128,45.128,0,0,1-9.813-1.047.678.678,0,0,1-.491-.491,9.34,9.34,0,0,1-.2-1.9,9.565,9.565,0,0,1,5.953-8.6,5.822,5.822,0,0,1-1.341-3.762A4.644,4.644,0,0,1,652.243,22a.667.667,0,0,1,1.308.262,4.432,4.432,0,0,0-.1.949,4.637,4.637,0,0,0,1.635,3.533.746.746,0,0,1,.229.621.6.6,0,0,1-.425.491,8.312,8.312,0,0,0-5.986,7.72,7.548,7.548,0,0,0,.1,1.21,42.862,42.862,0,0,0,9.093.916,42.643,42.643,0,0,0,9.093-.916,7.534,7.534,0,0,0,.1-1.21,8.354,8.354,0,0,0-5.986-7.72.6.6,0,0,1-.425-.491.66.66,0,0,1,.229-.621,4.587,4.587,0,0,0,1.635-3.533,4.13,4.13,0,0,0-.1-.916.667.667,0,0,1,1.308-.262,7.208,7.208,0,0,1,.131,1.178,6.007,6.007,0,0,1-1.341,3.762,9.53,9.53,0,0,1,5.953,8.6,9.349,9.349,0,0,1-.2,1.9.678.678,0,0,1-.491.491A50.678,50.678,0,0,1,658,38.977Z" transform="translate(655.928 139.545)"/>
      <path id="Path_450" data-name="Path 450" class="cls-1" d="M661.052,8.114a.7.7,0,0,1-.654-.523,7.15,7.15,0,0,1-.1-1.178,6.313,6.313,0,1,1,12.626,0,7.15,7.15,0,0,1-.1,1.178.648.648,0,1,1-1.276-.229,4.367,4.367,0,0,0,.1-.916,5,5,0,1,0-10.009,0,4.679,4.679,0,0,0,.1.949.638.638,0,0,1-.523.752A.438.438,0,0,0,661.052,8.114Z" transform="translate(647.315 153.923)"/>
      <path id="Path_451" data-name="Path 451" class="cls-1" d="M670.874,46.589H665.28a2.778,2.778,0,0,1-2.78-2.78V39.752a.654.654,0,1,1,1.308,0v4.056a1.466,1.466,0,0,0,1.472,1.472h5.593a1.466,1.466,0,0,0,1.472-1.472V39.654a.654.654,0,0,1,1.308,0v4.154A2.778,2.778,0,0,1,670.874,46.589Z" transform="translate(645.835 127.747)"/>
    </g>
  </g>
</svg>
