<svg xmlns="http://www.w3.org/2000/svg" viewBox="9371 -10112.655 35.195 32.639">
  <defs>
    <style>
      .cls-1 {
        fill: #939598;
      }
    </style>
  </defs>
  <g id="Group_540" data-name="Group 540" transform="translate(9371.043 -10581.205)">
    <g id="Group_392" data-name="Group 392" transform="translate(6.545 468.55)">
      <path id="Path_478" data-name="Path 478" class="cls-1" d="M18.893,484.574a.879.879,0,0,1-.877-.877V477.6H15.868a.842.842,0,0,1-.833-.614.813.813,0,0,1,.307-.965l9.469-7.277a.8.8,0,0,1,1.052,0l9.513,7.277a.832.832,0,0,1,.307.965.9.9,0,0,1-.833.614H32.7v3.551a.877.877,0,0,1-1.754,0v-4.428a.879.879,0,0,1,.877-.877h.438l-6.927-5.3-6.927,5.3h.438a.879.879,0,0,1,.877.877V483.7A.817.817,0,0,1,18.893,484.574Z" transform="translate(-14.984 -468.55)"/>
    </g>
    <g id="Group_393" data-name="Group 393" transform="translate(-0.043 481.374)">
      <path id="Path_479" data-name="Path 479" class="cls-1" d="M4.4,512.268a.843.843,0,0,1-.526-.175.852.852,0,0,1-.175-1.228c5.831-8.023,14.862-10.565,21.569-11.223a37.652,37.652,0,0,0-23.937,6.664.9.9,0,0,1-1.228-.219.9.9,0,0,1,.219-1.227c17.668-11.837,33.845-5.217,33.976-5.173a.943.943,0,0,1,.526,1.052.9.9,0,0,1-.964.658c-.175-.044-19.333-2.411-28.759,10.522A.915.915,0,0,1,4.4,512.268Z" transform="translate(0.043 -497.801)"/>
    </g>
    <g id="Group_394" data-name="Group 394" transform="translate(10.578 483.592)">
      <path id="Path_480" data-name="Path 480" class="cls-1" d="M25.068,520.458a1.28,1.28,0,0,1-.395-.088.879.879,0,0,1-.395-1.184c6.138-12.319,22.709-16.133,23.411-16.309a.877.877,0,0,1,.395,1.71c-.175.044-16.44,3.814-22.227,15.388A.924.924,0,0,1,25.068,520.458Z" transform="translate(-24.185 -502.862)"/>
    </g>
  </g>
</svg>
