<svg xmlns="http://www.w3.org/2000/svg" viewBox="-1403.038 -359 19.513 18">
  <defs>
    <style>
      .cls-1 {
        opacity: 0.221;
      }
    </style>
  </defs>
  <g id="Group_1048" data-name="Group 1048" class="cls-1" transform="translate(-1403.038 -359)">
    <path id="Path_746" data-name="Path 746" d="M18.864,8.172a2.15,2.15,0,0,0-1.584-.666h-.756V4.5a2.613,2.613,0,0,0-.234-1.026,3.079,3.079,0,0,0-.558-.9L13.95.792a2.565,2.565,0,0,0-.9-.558A2.613,2.613,0,0,0,12.024,0h-7.9A1.087,1.087,0,0,0,3.33.324a1.087,1.087,0,0,0-.324.792v6.39H2.25a2.122,2.122,0,0,0-1.584.666A2.15,2.15,0,0,0,0,9.756v4.878a.369.369,0,0,0,.378.378H3.006v1.872A1.106,1.106,0,0,0,4.122,18H15.39a1.106,1.106,0,0,0,1.116-1.116V15.012h2.628a.369.369,0,0,0,.378-.378V9.756a2.133,2.133,0,0,0-.648-1.584Zm-3.852,8.352H4.5V13.518H15.012Zm0-7.506H4.5V1.494h7.506V3.366a1.106,1.106,0,0,0,1.116,1.116h1.872V9.018ZM17.8,10.3a.739.739,0,1,1,.216-.522.752.752,0,0,1-.216.522Zm0,0" transform="translate(0 0)"/>
  </g>
</svg>
