<svg xmlns="http://www.w3.org/2000/svg" viewBox="42 -9704 99 99">
  <defs>
    <style>
      .cls-1 {
        opacity: 0.656;
      }

      .cls-2, .cls-5 {
        fill: none;
      }

      .cls-2 {
        stroke: #95989a;
        stroke-width: 3px;
      }

      .cls-3 {
        fill: #10af46;
      }

      .cls-4 {
        stroke: none;
      }
    </style>
  </defs>
  <g id="Group_697" data-name="Group 697" class="cls-1" transform="translate(-807 -10417)">
    <g id="Group_1178" data-name="Group 1178">
      <g id="Ellipse_20" data-name="Ellipse 20" class="cls-2" transform="translate(849 713)">
        <circle class="cls-4" cx="49.5" cy="49.5" r="49.5"/>
        <circle class="cls-5" cx="49.5" cy="49.5" r="48"/>
      </g>
      <g id="Group_696" data-name="Group 696" transform="translate(875.043 271.784)">
        <g id="Group_392" data-name="Group 392" transform="translate(9.667 468.55)">
          <path id="Path_478" data-name="Path 478" class="cls-3" d="M20.745,492.167a1.3,1.3,0,0,1-1.292-1.292v-8.982H16.287a1.241,1.241,0,0,1-1.228-.9,1.2,1.2,0,0,1,.452-1.422l13.957-10.726a1.179,1.179,0,0,1,1.551,0l14.022,10.726a1.226,1.226,0,0,1,.452,1.422,1.321,1.321,0,0,1-1.228.9H41.1v5.234a1.292,1.292,0,0,1-2.585,0V480.6a1.3,1.3,0,0,1,1.292-1.292h.646L30.244,471.49l-10.209,7.819h.646a1.3,1.3,0,0,1,1.292,1.292v10.274A1.2,1.2,0,0,1,20.745,492.167Z" transform="translate(-14.984 -468.55)"/>
        </g>
        <g id="Group_393" data-name="Group 393" transform="translate(-0.043 487.451)">
          <path id="Path_479" data-name="Path 479" class="cls-3" d="M6.511,519.124a1.242,1.242,0,0,1-.775-.258,1.256,1.256,0,0,1-.258-1.809c8.594-11.825,21.905-15.573,31.791-16.542-8.982-.646-21.776.775-35.281,9.822a1.324,1.324,0,0,1-1.809-.323A1.325,1.325,0,0,1,.5,508.2c26.041-17.446,49.884-7.689,50.078-7.625a1.39,1.39,0,0,1,.775,1.551,1.33,1.33,0,0,1-1.422.969c-.258-.065-28.5-3.554-42.389,15.508A1.349,1.349,0,0,1,6.511,519.124Z" transform="translate(0.043 -497.801)"/>
        </g>
        <g id="Group_394" data-name="Group 394" transform="translate(15.612 490.721)">
          <path id="Path_480" data-name="Path 480" class="cls-3" d="M25.487,528.8a1.887,1.887,0,0,1-.582-.129,1.3,1.3,0,0,1-.582-1.745c9.046-18.157,33.471-23.779,34.505-24.037a1.293,1.293,0,0,1,.582,2.52c-.258.065-24.231,5.622-32.761,22.68A1.361,1.361,0,0,1,25.487,528.8Z" transform="translate(-24.185 -502.862)"/>
        </g>
      </g>
    </g>
  </g>
</svg>
