<svg xmlns="http://www.w3.org/2000/svg" viewBox="-2965 -10128 120 65.398">
  <defs>
    <style>
      .cls-1 {
        fill: #a3774f;
      }

      .cls-2 {
        fill: #ca9e67;
      }

      .cls-3 {
        fill: #e83b3b;
      }

      .cls-4 {
        fill: #2ba94e;
      }
    </style>
  </defs>
  <g id="Group_1170" data-name="Group 1170" transform="translate(-2973.012 -10128)">
    <g id="Group_587" data-name="Group 587" transform="translate(64.074 12.161)">
      <g id="Group_585" data-name="Group 585" transform="translate(0 7.048)">
        <path id="Path_591" data-name="Path 591" class="cls-1" d="M5.333,135.459a2.966,2.966,0,0,0,1.079-.191,2.491,2.491,0,0,0,.889-.508,1.985,1.985,0,0,0,.571-.7,1.758,1.758,0,0,0,.19-.825,2.193,2.193,0,0,0-.317-1.143,2.959,2.959,0,0,0-.889-.889,6,6,0,0,0-1.27-.7,14.325,14.325,0,0,1-1.4-.7c-.508-.254-.952-.508-1.4-.762a9.071,9.071,0,0,1-1.27-.889,4.248,4.248,0,0,1-.889-1.206,4.159,4.159,0,0,1-.317-1.587A3.7,3.7,0,0,1,.7,123.713a3.343,3.343,0,0,1,1.016-1.27,4.2,4.2,0,0,1,1.587-.825A6.723,6.723,0,0,1,5.27,121.3a7.924,7.924,0,0,1,1.333.127,3.83,3.83,0,0,1,1.206.381,4.546,4.546,0,0,1,1.206.825,14.577,14.577,0,0,1,1.27,1.4l-1.079.952a6.43,6.43,0,0,0-1.841-2.032,3.88,3.88,0,0,0-2.159-.635,7,7,0,0,0-1.143.127,3.88,3.88,0,0,0-.889.444,1.8,1.8,0,0,0-.571.635,1.691,1.691,0,0,0-.19.762,1.773,1.773,0,0,0,.381,1.143,4.274,4.274,0,0,0,.952.889,6.568,6.568,0,0,0,1.333.7,16.236,16.236,0,0,1,1.524.7,11.372,11.372,0,0,1,1.524.762,6.959,6.959,0,0,1,1.333.889,4.448,4.448,0,0,1,.952,1.206,3.093,3.093,0,0,1,.381,1.587,4.848,4.848,0,0,1-.317,1.714,4.39,4.39,0,0,1-1.016,1.4,5.5,5.5,0,0,1-1.714.952,7.171,7.171,0,0,1-2.413.317A9.475,9.475,0,0,1,4,136.411a5.27,5.27,0,0,1-1.333-.381,5.08,5.08,0,0,1-1.333-.825A9.451,9.451,0,0,1,0,133.808l1.206-1.079c.381.508.7.889,1.016,1.27a3.685,3.685,0,0,0,.952.825,7.577,7.577,0,0,0,1.016.508A7,7,0,0,0,5.333,135.459Z" transform="translate(0 -116.665)"/>
        <path id="Path_592" data-name="Path 592" class="cls-1" d="M31.919,136.3H29v-1.968a11.587,11.587,0,0,0-1.016.825c-.317.254-.7.508-1.079.762a7.712,7.712,0,0,1-1.27.571,6.045,6.045,0,0,1-1.587.19,3.842,3.842,0,0,1-1.524-.254,4.829,4.829,0,0,1-1.206-.762,2.79,2.79,0,0,1-.762-1.143,3.529,3.529,0,0,1-.254-1.46,3.34,3.34,0,0,1,.381-1.651,4.142,4.142,0,0,1,1.016-1.333A9.3,9.3,0,0,1,23.221,129a16.189,16.189,0,0,1,1.841-.825,17.865,17.865,0,0,1,1.968-.635c.7-.19,1.333-.381,1.968-.508v-.889a6.21,6.21,0,0,0-.19-1.651,2.5,2.5,0,0,0-.571-1.079,1.669,1.669,0,0,0-.889-.571,3.321,3.321,0,0,0-1.143-.19,3.2,3.2,0,0,0-1.206.19,1.537,1.537,0,0,0-.7.508,1.514,1.514,0,0,0-.381.7,3.354,3.354,0,0,0-.063.825,2.381,2.381,0,0,1-.063.7,1.9,1.9,0,0,1-.254.635,1.483,1.483,0,0,1-.444.444,1.28,1.28,0,0,1-.7.19,1.878,1.878,0,0,1-.635-.127,1.332,1.332,0,0,1-.508-.381,1.031,1.031,0,0,1-.317-.571,2.283,2.283,0,0,1-.127-.7,1.993,1.993,0,0,1,.444-1.333,4.244,4.244,0,0,1,1.27-1.079,5.3,5.3,0,0,1,1.841-.7,8.523,8.523,0,0,1,2.222-.254,8.779,8.779,0,0,1,2.413.254,4.622,4.622,0,0,1,1.587.762,3.316,3.316,0,0,1,.889,1.206,4.384,4.384,0,0,1,.254,1.587V136.3ZM29,127.859c-.444.127-.825.317-1.27.444l-1.333.571a7.479,7.479,0,0,0-1.206.7c-.381.254-.7.508-1.016.762a3.088,3.088,0,0,0-.7.889,1.863,1.863,0,0,0-.254,1.016,2.632,2.632,0,0,0,.19,1.016,3.6,3.6,0,0,0,.508.825,1.733,1.733,0,0,0,.762.571,2.028,2.028,0,0,0,.889.191,4.9,4.9,0,0,0,.952-.127,3.191,3.191,0,0,0,.825-.317,5.794,5.794,0,0,0,.825-.508,7.187,7.187,0,0,0,.825-.635v-5.4Z" transform="translate(-7.411 -116.811)"/>
        <path id="Path_593" data-name="Path 593" class="cls-1" d="M44.6,121.617h2.857v2.667a10.783,10.783,0,0,1,2.73-2.222,6.077,6.077,0,0,1,2.921-.762,3.461,3.461,0,0,1,1.4.317,3.283,3.283,0,0,1,1.143.952,4.927,4.927,0,0,1,.762,1.4,4.848,4.848,0,0,1,.317,1.714v10.413H53.807v-9.905a3.133,3.133,0,0,0-.635-2.159,2.138,2.138,0,0,0-1.651-.762,4.9,4.9,0,0,0-.952.127,7.054,7.054,0,0,0-1.016.444,9.559,9.559,0,0,0-1.079.635,6.8,6.8,0,0,0-1.016.889v10.73H44.6Z" transform="translate(-16.282 -116.665)"/>
        <path id="Path_594" data-name="Path 594" class="cls-1" d="M75.87,131.651a4.562,4.562,0,0,1-1.524,1.587A4.441,4.441,0,0,1,72,133.81a2.674,2.674,0,0,1-1.27-.254,2.422,2.422,0,0,1-.889-.7,2.835,2.835,0,0,1-.508-1.079,4.952,4.952,0,0,1-.19-1.4V120.159H66.6v-.7a3.619,3.619,0,0,0,1.968-.444,3.848,3.848,0,0,0,1.27-1.206A7.026,7.026,0,0,0,70.6,116.1a16.9,16.9,0,0,0,.508-2.1h.825v4.953h3.238v1.206H71.933v10.222a2.256,2.256,0,0,0,.127.635,1.332,1.332,0,0,0,.825.825,1.879,1.879,0,0,0,.635.127,1.458,1.458,0,0,0,.889-.254,3.054,3.054,0,0,0,.7-.571Z" transform="translate(-24.313 -114)"/>
        <path id="Path_595" data-name="Path 595" class="cls-1" d="M94.019,136.3H91.1v-1.968a11.588,11.588,0,0,0-1.016.825c-.317.254-.7.508-1.079.762a7.713,7.713,0,0,1-1.27.571,6.045,6.045,0,0,1-1.587.19,3.842,3.842,0,0,1-1.524-.254,4.829,4.829,0,0,1-1.206-.762,2.79,2.79,0,0,1-.762-1.143,3.529,3.529,0,0,1-.254-1.46,3.34,3.34,0,0,1,.381-1.651,4.143,4.143,0,0,1,1.016-1.333A9.3,9.3,0,0,1,85.321,129a16.189,16.189,0,0,1,1.841-.825,17.864,17.864,0,0,1,1.968-.635c.7-.19,1.333-.381,1.968-.508v-.889a6.209,6.209,0,0,0-.19-1.651,2.5,2.5,0,0,0-.571-1.079,1.669,1.669,0,0,0-.889-.571,3.321,3.321,0,0,0-1.143-.19,3.2,3.2,0,0,0-1.206.19,1.537,1.537,0,0,0-.7.508,2.464,2.464,0,0,0-.381.7,3.354,3.354,0,0,0-.063.825,2.381,2.381,0,0,1-.063.7,1.9,1.9,0,0,1-.254.635,1.483,1.483,0,0,1-.444.444,1.28,1.28,0,0,1-.7.19,1.879,1.879,0,0,1-.635-.127,1.332,1.332,0,0,1-.508-.381,1.031,1.031,0,0,1-.317-.571,2.282,2.282,0,0,1-.127-.7,1.993,1.993,0,0,1,.444-1.333,4.244,4.244,0,0,1,1.27-1.079,5.3,5.3,0,0,1,1.841-.7,8.523,8.523,0,0,1,2.222-.254,8.779,8.779,0,0,1,2.413.254,4.623,4.623,0,0,1,1.587.762,3.316,3.316,0,0,1,.889,1.206,4.384,4.384,0,0,1,.254,1.587V136.3Zm-2.857-8.445c-.444.127-.825.317-1.27.444l-1.333.571a7.478,7.478,0,0,0-1.206.7c-.381.254-.7.508-1.016.762a3.088,3.088,0,0,0-.7.889,1.863,1.863,0,0,0-.254,1.016,2.632,2.632,0,0,0,.19,1.016,3.6,3.6,0,0,0,.508.825,1.733,1.733,0,0,0,.762.571,2.028,2.028,0,0,0,.889.191,4.9,4.9,0,0,0,.952-.127,3.191,3.191,0,0,0,.825-.317,5.794,5.794,0,0,0,.825-.508,7.186,7.186,0,0,0,.825-.635v-5.4Z" transform="translate(-30.081 -116.811)"/>
        <path id="Path_596" data-name="Path 596" class="cls-1" d="M14.694,163.875a6.286,6.286,0,0,1-2.667-.571,6.64,6.64,0,0,1-2.159-1.524,7.054,7.054,0,0,1-1.46-2.286A6.834,6.834,0,0,1,7.9,156.7a8.461,8.461,0,0,1,.571-3.111,9.51,9.51,0,0,1,1.587-2.54,8.31,8.31,0,0,1,2.413-1.714,6.542,6.542,0,0,1,2.921-.635,7.923,7.923,0,0,1,2.222.254,9.434,9.434,0,0,1,1.778.7,3.76,3.76,0,0,1,1.143,1.079,2.773,2.773,0,0,1,.444,1.333,1.225,1.225,0,0,1-.19.635,1.711,1.711,0,0,1-.444.508,1.987,1.987,0,0,1-.635.318,2.7,2.7,0,0,1-.7.127,2.284,2.284,0,0,1-.7-.127.988.988,0,0,1-.508-.381,2.226,2.226,0,0,1-.317-.508,1.854,1.854,0,0,1-.127-.571,4.9,4.9,0,0,0-.127-.952,1.448,1.448,0,0,0-.381-.762,2.283,2.283,0,0,0-.762-.508,3.2,3.2,0,0,0-1.206-.19,4.056,4.056,0,0,0-1.778.381,4.346,4.346,0,0,0-1.333,1.079,4.2,4.2,0,0,0-.825,1.587,6.7,6.7,0,0,0-.254,1.968,8.6,8.6,0,0,0,.381,2.6,7.528,7.528,0,0,0,1.016,2.159,4.342,4.342,0,0,0,1.587,1.46,4,4,0,0,0,2.1.571,4.941,4.941,0,0,0,1.778-.317,3.067,3.067,0,0,0,1.27-.889,4.757,4.757,0,0,0,.952-1.27,11.14,11.14,0,0,0,.7-1.524l.889.381a10.682,10.682,0,0,1-1.016,2.476,8.488,8.488,0,0,1-1.46,1.841,5.863,5.863,0,0,1-1.9,1.143A4.092,4.092,0,0,1,14.694,163.875Z" transform="translate(-2.884 -126.668)"/>
        <path id="Path_597" data-name="Path 597" class="cls-1" d="M33.3,149.154h2.857v2.73a13.944,13.944,0,0,1,.889-1.143,5.984,5.984,0,0,1,2.1-1.587,2.49,2.49,0,0,1,1.143-.254,3.748,3.748,0,0,1,.889.127,2.274,2.274,0,0,1,1.206.952,1.28,1.28,0,0,1,.19.7,1.308,1.308,0,0,1-.444,1.079,1.831,1.831,0,0,1-1.206.381,2.368,2.368,0,0,1-.762-.127,1.276,1.276,0,0,1-.508-.254,3.768,3.768,0,0,0-.508-.254,1.879,1.879,0,0,0-.635-.127,1.024,1.024,0,0,0-.571.191,3.486,3.486,0,0,0-.571.444,6.755,6.755,0,0,0-.571.7c-.19.254-.381.571-.571.889v10.032H33.363V149.154Z" transform="translate(-12.157 -126.741)"/>
        <path id="Path_598" data-name="Path 598" class="cls-1" d="M53.757,149.264v10.349a1.863,1.863,0,0,0,.254,1.016,2.849,2.849,0,0,0,.7.825,3.22,3.22,0,0,0,1.016.571,4.094,4.094,0,0,0,1.27.19,2.241,2.241,0,0,0,.889-.19,6.942,6.942,0,0,0,.952-.508,4.746,4.746,0,0,0,.889-.762,4.793,4.793,0,0,0,.7-.889v-10.6h2.857V163.74H60.424v-2.73a5.69,5.69,0,0,1-.952,1.206,6.038,6.038,0,0,1-1.27.952,5.559,5.559,0,0,1-1.4.635,5.452,5.452,0,0,1-1.333.254,4.26,4.26,0,0,1-1.778-.381,5.8,5.8,0,0,1-1.46-.952,3.438,3.438,0,0,1-.952-1.4,4.261,4.261,0,0,1-.381-1.778V149.2h2.857Z" transform="translate(-18.582 -126.85)"/>
        <path id="Path_599" data-name="Path 599" class="cls-1" d="M73.2,163.115l10.413-12.508H73.2V149.4H87.74v.635l-10.667,12.7H87.74v1.206H73.2Z" transform="translate(-26.723 -126.923)"/>
      </g>
      <g id="Group_586" data-name="Group 586" transform="translate(5.968)">
        <path id="Path_600" data-name="Path 600" class="cls-1" d="M13.083,105.694v.444h-1.46v4.953H10.543v-4.953H9.4v-.444h1.143v-.635a1.758,1.758,0,0,1,.19-.825,2.622,2.622,0,0,1,.444-.7,2.281,2.281,0,0,1,.635-.444,1.691,1.691,0,0,1,.762-.19,1.957,1.957,0,0,1,.635.064,3.1,3.1,0,0,1,.444.19.765.765,0,0,1,.317.317.9.9,0,0,1,.127.381.233.233,0,0,1-.063.19c0,.063-.063.127-.127.19s-.127.063-.19.127c-.063,0-.127.064-.19.064a.476.476,0,0,1-.317-.064l-.19-.19a.382.382,0,0,1-.063-.254c0-.063-.063-.19-.063-.254l-.19-.19a.476.476,0,0,0-.317-.063.572.572,0,0,0-.317.063c-.063.063-.19.127-.254.254a.681.681,0,0,0-.127.381.805.805,0,0,0-.063.381v1.27h1.46Z" transform="translate(-9.4 -102.9)"/>
        <path id="Path_601" data-name="Path 601" class="cls-1" d="M20.418,112.624H19.338v-.762c-.127.127-.254.19-.381.317a1.328,1.328,0,0,1-.381.254c-.127.063-.317.127-.444.19a1.957,1.957,0,0,1-.635.064,1.854,1.854,0,0,1-.571-.127,2.758,2.758,0,0,1-.444-.254,1.023,1.023,0,0,1-.254-.444,1.494,1.494,0,0,1-.127-.508,1.878,1.878,0,0,1,.127-.635.987.987,0,0,1,.381-.508,4.453,4.453,0,0,1,.571-.381,7.449,7.449,0,0,1,.7-.317c.254-.064.508-.19.762-.254l.762-.19v-.317a1.958,1.958,0,0,0-.063-.635,1.034,1.034,0,0,0-.19-.381.634.634,0,0,0-.317-.254.941.941,0,0,0-.444-.063.941.941,0,0,0-.444.063.877.877,0,0,0-.254.19.481.481,0,0,0-.127.254c0,.127-.063.19-.063.317v.254c0,.063-.063.19-.063.254l-.19.19c-.063.064-.127.064-.254.064a.382.382,0,0,1-.254-.064c-.063,0-.127-.063-.19-.127s-.063-.127-.127-.19c0-.063-.063-.19-.063-.254a.844.844,0,0,1,.19-.508c.127-.127.254-.317.444-.381a2.274,2.274,0,0,1,.7-.254,3.716,3.716,0,0,1,.825-.127,3.31,3.31,0,0,1,.889.127,1.228,1.228,0,0,1,.571.317,1.139,1.139,0,0,1,.317.444,1.854,1.854,0,0,1,.127.571Zm-1.079-3.111a4.379,4.379,0,0,1-.508.191c-.19.063-.317.127-.508.19a2.761,2.761,0,0,0-.444.254,1.684,1.684,0,0,0-.381.317,1.115,1.115,0,0,0-.254.317.9.9,0,0,0-.127.381.805.805,0,0,0,.063.381,1.388,1.388,0,0,0,.19.317c.063.063.19.19.254.19a.572.572,0,0,0,.317.063.476.476,0,0,0,.317-.063c.063-.063.19-.063.317-.127s.19-.127.317-.19a1.115,1.115,0,0,0,.317-.254v-1.968Z" transform="translate(-11.846 -104.433)"/>
        <path id="Path_602" data-name="Path 602" class="cls-1" d="M24.3,112.443l3.937-4.7H24.3V107.3h5.46v.254l-4,4.762h4v.444H24.3Z" transform="translate(-14.839 -104.506)"/>
        <path id="Path_603" data-name="Path 603" class="cls-1" d="M36.2,112.751a2.632,2.632,0,0,1-1.016-.19,1.933,1.933,0,0,1-.825-.571,2.416,2.416,0,0,1-.571-.825,2.632,2.632,0,0,1-.19-1.016,3.7,3.7,0,0,1,.19-1.206,2.391,2.391,0,0,1,.571-.952,2.619,2.619,0,0,1,.825-.635,2.991,2.991,0,0,1,1.079-.254,2.12,2.12,0,0,1,.952.191,3.189,3.189,0,0,1,.762.508,2.283,2.283,0,0,1,.508.762,2.028,2.028,0,0,1,.19.889H34.616a4.935,4.935,0,0,0,.127,1.016,3.283,3.283,0,0,0,.381.825,1.612,1.612,0,0,0,.635.508,1.691,1.691,0,0,0,.762.19,2.7,2.7,0,0,0,.7-.127,2.575,2.575,0,0,0,.571-.317,1.483,1.483,0,0,0,.444-.444,1.9,1.9,0,0,0,.254-.508l.317.127a1.73,1.73,0,0,1-.381.762,3.01,3.01,0,0,1-.635.635,4.735,4.735,0,0,1-.762.444A1.757,1.757,0,0,1,36.2,112.751Zm1.079-3.81a1.854,1.854,0,0,0-.127-.571,1.661,1.661,0,0,0-.762-.762,1.854,1.854,0,0,0-.571-.127.918.918,0,0,0-.444.127,1.684,1.684,0,0,0-.381.317,2.688,2.688,0,0,0-.317.444,1.854,1.854,0,0,0-.127.571Z" transform="translate(-18.235 -104.433)"/>
        <path id="Path_604" data-name="Path 604" class="cls-1" d="M43.4,107.263h1.079v1.016a3.873,3.873,0,0,1,1.016-.825,2.243,2.243,0,0,1,1.079-.254,1.2,1.2,0,0,1,.508.127.854.854,0,0,1,.444.381,3.547,3.547,0,0,1,.317.508,2.256,2.256,0,0,1,.127.635v3.873H46.892v-3.746a1.077,1.077,0,0,0-.254-.825A.815.815,0,0,0,46,107.9a.805.805,0,0,0-.381.064c-.127.063-.254.063-.381.19a1.328,1.328,0,0,0-.381.254c-.127.127-.254.19-.381.317v4H43.4Z" transform="translate(-21.812 -104.47)"/>
        <path id="Path_605" data-name="Path 605" class="cls-1" d="M56.2,110.583a1.328,1.328,0,0,1-.381.254c-.127.063-.317.127-.444.19a1.177,1.177,0,0,1-.444.127c-.19,0-.317.063-.444.063a1.458,1.458,0,0,1-.889-.254,1.985,1.985,0,0,1-.7-.571,4.048,4.048,0,0,1-.508-.889,2.966,2.966,0,0,1-.19-1.079,2.283,2.283,0,0,1,.127-.7,3.4,3.4,0,0,1,.317-.7,2.918,2.918,0,0,1,1.016-1.016,2.347,2.347,0,0,1,.7-.317,3.187,3.187,0,0,1,.762-.127,2.283,2.283,0,0,1,.7.127,1.5,1.5,0,0,1,.571.381v-2.857l.762-.317h.317v8.318H56.391v-.635Zm0-3.175a1.854,1.854,0,0,0-.127-.571,1.139,1.139,0,0,0-.317-.444,2.688,2.688,0,0,0-.444-.317,1.494,1.494,0,0,0-.508-.127,1.225,1.225,0,0,0-.635.19,1.711,1.711,0,0,0-.508.444,2.347,2.347,0,0,0-.317.7,3.747,3.747,0,0,0-.127.889,4.32,4.32,0,0,0,.127.952,1.448,1.448,0,0,0,.381.762,1.12,1.12,0,0,0,.571.508,1.225,1.225,0,0,0,.635.19.476.476,0,0,0,.317-.063c.127,0,.19-.063.317-.127s.19-.127.317-.19c.063-.063.19-.127.254-.19v-2.6Z" transform="translate(-25.025 -102.9)"/>
        <path id="Path_606" data-name="Path 606" class="cls-1" d="M66.018,112.624H64.938v-.762c-.127.127-.254.19-.381.317a1.328,1.328,0,0,1-.381.254c-.127.063-.317.127-.444.19a1.957,1.957,0,0,1-.635.064,1.854,1.854,0,0,1-.571-.127,2.758,2.758,0,0,1-.444-.254,1.023,1.023,0,0,1-.254-.444,1.5,1.5,0,0,1-.127-.508,1.878,1.878,0,0,1,.127-.635.987.987,0,0,1,.381-.508,4.455,4.455,0,0,1,.571-.381,7.448,7.448,0,0,1,.7-.317c.254-.064.508-.19.762-.254l.762-.19v-.317a1.957,1.957,0,0,0-.064-.635,1.034,1.034,0,0,0-.19-.381.634.634,0,0,0-.317-.254,1.587,1.587,0,0,0-.889,0,.877.877,0,0,0-.254.19.481.481,0,0,0-.127.254,2.75,2.75,0,0,0-.063.317v.254c0,.063-.063.19-.063.254l-.19.19c-.063.064-.127.064-.254.064a.382.382,0,0,1-.254-.064c-.063,0-.127-.063-.19-.127s-.063-.127-.127-.19c0-.063-.063-.19-.063-.254a.844.844,0,0,1,.19-.508c.127-.127.254-.317.444-.381a2.274,2.274,0,0,1,.7-.254,3.716,3.716,0,0,1,.825-.127,3.31,3.31,0,0,1,.889.127,1.228,1.228,0,0,1,.571.317,1.139,1.139,0,0,1,.317.444,1.854,1.854,0,0,1,.127.571v4.064Zm-1.079-3.111a4.378,4.378,0,0,1-.508.191c-.19.063-.317.127-.508.19a2.76,2.76,0,0,0-.444.254,1.684,1.684,0,0,0-.381.317,1.115,1.115,0,0,0-.254.317.9.9,0,0,0-.127.381.805.805,0,0,0,.063.381,1.388,1.388,0,0,0,.19.317c.063.063.19.19.254.19a.572.572,0,0,0,.317.063.476.476,0,0,0,.317-.063c.127-.063.19-.063.317-.127s.19-.127.317-.19a1.115,1.115,0,0,0,.317-.254v-1.968Z" transform="translate(-28.493 -104.433)"/>
      </g>
    </g>
    <g id="Group_588" data-name="Group 588" transform="translate(17.727)">
      <path id="Path_607" data-name="Path 607" class="cls-2" d="M51.31,10.1A52.477,52.477,0,0,0,43.881.7L43.119,0l-.762.7a52.477,52.477,0,0,0-7.429,9.4C31.564,15.492,27.5,24.128,27.5,34.35c0,10.349,4.127,16.445,7.619,19.683a22.2,22.2,0,0,0,6.857,4.445v5.841a1.079,1.079,0,0,0,2.159,0V58.6l.063-.063A21.115,21.115,0,0,0,51.12,54.1c3.492-3.3,7.619-9.334,7.619-19.683A47.312,47.312,0,0,0,51.31,10.1ZM29.722,34.35a42.1,42.1,0,0,1,5.016-19.3,16.615,16.615,0,0,0,3.238,12.445l1.016,1.4.952,1.333-8.7,13.905A29.535,29.535,0,0,1,29.722,34.35Zm2.73,12.572,9.016-14.413q1.81,2.571,3.238,4.953L35.818,51.684A19.554,19.554,0,0,1,32.453,46.922Zm16,2.286c-.508,2.6-2.349,4.952-5.714,7.238a20.568,20.568,0,0,1-5.079-2.984L46.1,39.937C48.008,43.366,49.024,46.414,48.453,49.208Zm1.841,2.54a8.8,8.8,0,0,0,.635-2.1c1.206-6.476-3.683-13.4-9.905-22.223l-1.016-1.4c-7.619-10.857,1.333-19.81,3.937-22.1,3.556,4,12.572,15.556,12.572,30.35C56.517,41.652,54.421,47.493,50.294,51.747Z" transform="translate(-27.5)"/>
    </g>
    <path id="Path_608" data-name="Path 608" class="cls-3" d="M34.486,68.422a18.637,18.637,0,0,1-3.683-1.9A20.939,20.939,0,0,1,22.74,29.691c.571-1.46,1.143-2.857,1.778-4.191A23.451,23.451,0,0,0,34.55,69.565V68.422Z" transform="translate(-4.188 -9.309)"/>
    <path id="Path_609" data-name="Path 609" class="cls-4" d="M66.859,25.5c.635,1.333,1.206,2.73,1.778,4.191a20.966,20.966,0,0,1-8.191,36.826,18.638,18.638,0,0,1-3.683,1.9l-.064.063v1.079A23.471,23.471,0,0,0,66.859,25.5Z" transform="translate(-20.433 -9.309)"/>
    <g id="Group_589" data-name="Group 589" transform="translate(17.727)">
      <path id="Path_610" data-name="Path 610" class="cls-2" d="M51.31,10.1A52.477,52.477,0,0,0,43.881.7L43.119,0l-.762.7a52.477,52.477,0,0,0-7.429,9.4C31.564,15.492,27.5,24.128,27.5,34.35c0,10.349,4.127,16.445,7.619,19.683a22.2,22.2,0,0,0,6.857,4.445v5.841a1.079,1.079,0,0,0,2.159,0V58.6l.063-.063A21.115,21.115,0,0,0,51.12,54.1c3.492-3.3,7.619-9.334,7.619-19.683A47.312,47.312,0,0,0,51.31,10.1ZM29.722,34.35a42.1,42.1,0,0,1,5.016-19.3,16.615,16.615,0,0,0,3.238,12.445l1.016,1.4.952,1.333-8.7,13.905A29.535,29.535,0,0,1,29.722,34.35Zm2.73,12.572,9.016-14.413q1.81,2.571,3.238,4.953L35.818,51.684A19.554,19.554,0,0,1,32.453,46.922Zm16,2.286c-.508,2.6-2.349,4.952-5.714,7.238a20.568,20.568,0,0,1-5.079-2.984L46.1,39.937C48.008,43.366,49.024,46.414,48.453,49.208Zm1.841,2.54a8.8,8.8,0,0,0,.635-2.1c1.206-6.476-3.683-13.4-9.905-22.223l-1.016-1.4c-7.619-10.857,1.333-19.81,3.937-22.1,3.556,4,12.572,15.556,12.572,30.35C56.517,41.652,54.421,47.493,50.294,51.747Z" transform="translate(-27.5)"/>
    </g>
    <g id="Group_590" data-name="Group 590" transform="translate(20.013 21.969)">
      <path id="Path_611" data-name="Path 611" class="cls-2" d="M38.275,39.386A19.183,19.183,0,0,1,37.132,37.1a17.117,17.117,0,0,0-5.46,4,33.542,33.542,0,0,0-.571,5.143A15.952,15.952,0,0,1,38.275,39.386Z" transform="translate(-31.1 -35.513)"/>
      <path id="Path_612" data-name="Path 612" class="cls-2" d="M51.525,88.563A3.621,3.621,0,0,1,50.7,88.5c.19.063.381.19.571.254C51.335,88.69,51.462,88.627,51.525,88.563Z" transform="translate(-38.255 -54.277)"/>
      <path id="Path_613" data-name="Path 613" class="cls-2" d="M49.316,34.6a16.26,16.26,0,0,0-5.016.762,13.241,13.241,0,0,0,1.206,2.286,15.411,15.411,0,0,1,3.873-.508,15.237,15.237,0,0,1,13.27,7.937,41.749,41.749,0,0,0-.571-5.016A17.607,17.607,0,0,0,49.316,34.6Z" transform="translate(-35.919 -34.6)"/>
    </g>
    <path id="Path_614" data-name="Path 614" class="cls-2" d="M49.316,34.6a16.26,16.26,0,0,0-5.016.762,13.241,13.241,0,0,0,1.206,2.286,15.411,15.411,0,0,1,3.873-.508,15.237,15.237,0,0,1,13.27,7.937,41.749,41.749,0,0,0-.571-5.016A17.607,17.607,0,0,0,49.316,34.6Z" transform="translate(-15.906 -12.631)"/>
  </g>
</svg>
